<?xml version="1.0" encoding="UTF-8" standalone="no" ?>
<!DOCTYPE svg PUBLIC "-//W3C//DTD SVG 1.1//EN" "http://www.w3.org/Graphics/SVG/1.1/DTD/svg11.dtd">
<svg xmlns="http://www.w3.org/2000/svg" xmlns:xlink="http://www.w3.org/1999/xlink" version="1.1" width="500" height="500" viewBox="0 0 500 500" xml:space="preserve">
<desc>Created with Fabric.js 5.3.0</desc>
<defs>
</defs>
<g transform="matrix(1 0 0 1 294.0144120092 277.3448393472)" id="RYYEQ7JjR4StavaGes3xJ"  >
<path style="stroke: rgb(166,23,63); stroke-width: 0; stroke-dasharray: none; stroke-linecap: butt; stroke-dashoffset: 0; stroke-linejoin: miter; stroke-miterlimit: 4; fill: rgb(255,255,255); fill-rule: nonzero; opacity: 1;"  transform=" translate(-388.0952347647, -388.0952347647)" d="M 0 0 L 776.19047 0 L 776.19047 776.19047 L 0 776.19047 z" stroke-linecap="round" />
</g>
<g transform="matrix(1 0 0 1 250 250)" id="ChXD5XeUULIu0FgifNdrc"  >
<path style="stroke: rgb(223,110,105); stroke-width: 0; stroke-dasharray: none; stroke-linecap: butt; stroke-dashoffset: 0; stroke-linejoin: miter; stroke-miterlimit: 4; fill: rgb(255,224,72); fill-rule: nonzero; opacity: 1;"  transform=" translate(-149, -148.99999)" d="M 149 0 C 177.83152 0 204.75887 8.20254 227.57421 22.39977 L 204.13291999999998 40.714110000000005 C 187.58343 32.26563 168.84488 27.500000000000007 149.00001999999998 27.500000000000007 C 81.93201999999998 27.500000000000007 27.500019999999978 81.93200000000002 27.500019999999978 149 C 27.500019999999978 216.06799999999998 81.93201999999998 270.5 149.00001999999998 270.5 C 216.06802 270.5 270.50001999999995 216.06799999999998 270.50001999999995 149 C 270.50001999999995 136.41946000000002 268.58477999999997 124.28353 265.03016999999994 112.86806 L 287.90111999999993 94.99931000000001 C 294.42164999999994 111.74473 297.99999999999994 129.95702 297.99999999999994 148.99999000000003 C 297.99999999999994 231.24799000000002 231.24799999999993 297.99999 148.99999999999994 297.99999 C 66.75199999999994 297.99999 -5.684341886080802e-14 231.24799000000002 -5.684341886080802e-14 148.99999000000003 C -5.684341886080802e-14 66.75199000000002 66.75199999999994 -0.000009999999974752427 148.99999999999994 -0.000009999999974752427 z" stroke-linecap="round" />
</g>
<g transform="matrix(0.3462629585 0.4431963763 -4.1826658013 3.267856671 416.9221556133 111.613652116)" id="9UE_z9pr_dQ1JuoVToHbs"  >
<linearGradient id="SVGID_79" gradientUnits="userSpaceOnUse" gradientTransform="matrix(1 0 0 1 -28.44827 -28.44828)"  x1="24.797696594560705" y1="-5.324468896853325" x2="31.421928635562665" y2="59.894422041487765">
<stop offset="0%" style="stop-color:#FFE048;stop-opacity: 0"/>
<stop offset="51.784067254214136%" style="stop-color:#FFE048;stop-opacity: 0.5019607843137255"/>
<stop offset="100%" style="stop-color:#FFE048;stop-opacity: 1"/>
</linearGradient>
<path style="stroke: rgb(141,21,174); stroke-width: 0; stroke-dasharray: none; stroke-linecap: butt; stroke-dashoffset: 0; stroke-linejoin: miter; stroke-miterlimit: 4; fill: url(#SVGID_79); fill-rule: nonzero; opacity: 1;"  transform=" translate(-0.000005, 0)" d="M -28.44827 -27.16938 C -28.44827 -27.87569 -23.04454 -28.44828 -16.37869 -28.44828 L 16.378700000000002 -28.44828 L 16.378700000000002 -28.44828 C 23.04454 -28.44828 28.448280000000004 -27.875700000000002 28.448280000000004 -27.16938 L 28.448280000000004 27.16938 L 28.448280000000004 27.16938 C 28.448280000000004 27.87569 23.044550000000005 28.44828 16.378700000000002 28.44828 L -16.37869 28.44828 L -16.37869 28.44828 C -23.044529999999998 28.44828 -28.44827 27.875700000000002 -28.44827 27.16938 z" stroke-linecap="round" />
</g>
<g transform="matrix(1 0 0 1 249.9999852027 256.9481264011)" id="UHs9IM05bS0rj7mrYLRwk"  >
<path style="stroke: rgb(188,207,179); stroke-width: 0; stroke-dasharray: none; stroke-linecap: butt; stroke-dashoffset: 0; stroke-linejoin: miter; stroke-miterlimit: 4; fill: rgb(51,51,51); fill-rule: nonzero; opacity: 1;"  transform=" translate(-64.000005, -72.000005)" d="M 0.00002 21.60451 C 0.00002 9.672670000000002 9.67269 0 21.60453 0 L 106.3955 0 C 118.32733999999999 0 128.00001 9.67267 128.00001 21.60451 L 128.00001 22.60451 C 128.00001 27.793490000000002 123.79351 32 118.60452000000001 32 L 80.00002 32 L 80.00002 133.6611 C 80.00002 139.37112000000002 75.37113000000001 144.00001 69.66111000000001 144.00001 L 58.338930000000005 144.00001 C 52.628910000000005 144.00001 48.000020000000006 139.37112 48.000020000000006 133.6611 L 48.000020000000006 32 L 9.39549000000001 32 C 4.2065100000000095 32 8.881784197001252e-15 27.7935 8.881784197001252e-15 22.604509999999998 z" stroke-linecap="round" />
</g>
</svg>